<svg width="165" height="217" viewBox="0 0 165 217" fill="none" xmlns="http://www.w3.org/2000/svg">
<g opacity="0.1">
<path d="M16.3327 197.748C15.5295 197.749 14.7342 197.907 13.9925 198.216C13.2507 198.524 12.5772 198.975 12.0105 199.544C11.4438 200.113 10.995 200.788 10.69 201.53C10.385 202.272 10.2297 203.068 10.2329 203.87C10.2582 207.112 13.0913 209.955 16.3029 209.955C17.1291 209.951 17.9463 209.784 18.7071 209.462C19.4679 209.14 20.1572 208.671 20.7349 208.081C21.2982 207.53 21.7465 206.873 22.0537 206.147C22.3609 205.422 22.5208 204.643 22.5242 203.856C22.5256 203.048 22.3662 202.248 22.0555 201.502C21.7447 200.756 21.2887 200.08 20.7141 199.511C20.1394 198.943 19.4574 198.495 18.7078 198.192C17.9582 197.889 17.1559 197.739 16.3474 197.748H16.3346L16.3327 197.748ZM16.3337 193.572H16.3474C17.7029 193.564 19.0467 193.824 20.3016 194.336C21.5565 194.848 22.6978 195.603 23.66 196.557C24.6223 197.511 25.3865 198.645 25.9088 199.895C26.4311 201.145 26.7013 202.485 26.7038 203.839C26.7256 209.433 21.9874 214.123 16.3083 214.131H16.2959C10.823 214.131 6.09641 209.412 6.05347 203.903C6.04583 202.549 6.30606 201.207 6.81925 199.954C7.33244 198.701 8.08847 197.562 9.04382 196.602C9.99917 195.642 11.135 194.88 12.3861 194.36C13.6371 193.84 14.9787 193.573 16.3337 193.572V193.572Z" fill="#006667"/>
<path d="M16.2571 59.3945C13.0551 59.3952 10.2421 62.2741 10.2373 65.556C10.2347 66.3374 10.3874 67.1116 10.6866 67.8335C10.9858 68.5555 11.4254 69.2109 11.9801 69.7618C12.5684 70.3472 13.2674 70.8101 14.0362 71.1234C14.8051 71.4368 15.6286 71.5944 16.4589 71.5872C17.263 71.5837 18.0585 71.4206 18.799 71.1073C19.5395 70.7941 20.2103 70.337 20.7725 69.7626C21.3246 69.2225 21.7639 68.5781 22.0648 67.867C22.3657 67.1559 22.5222 66.3922 22.5253 65.6202C22.5082 63.9817 21.852 62.4144 20.6961 61.2519C19.5403 60.0893 17.9761 59.4232 16.3362 59.3951L16.2571 59.3945ZM16.2582 55.2188C16.3036 55.2188 16.3494 55.2191 16.395 55.2197C19.1316 55.2593 21.7436 56.3687 23.671 58.31C25.5983 60.2514 26.6875 62.87 26.7049 65.6043C26.726 71.1279 22.0587 75.7573 16.4631 75.7629H16.4522C10.6855 75.7629 6.04927 71.209 6.05767 65.5499C6.06595 59.939 10.7436 55.2186 16.2582 55.2188V55.2188Z" fill="#006667"/>
<path d="M44.0013 197.742H44.0016L43.965 197.742C43.1728 197.744 42.3888 197.903 41.6587 198.211C40.9287 198.518 40.2672 198.968 39.7128 199.533C39.1402 200.115 38.6892 200.805 38.3862 201.563C38.0831 202.321 37.9342 203.131 37.9479 203.947C37.9807 207.084 40.8103 209.94 43.8845 209.94C43.9201 209.94 43.9552 209.939 43.9911 209.939C47.5111 209.865 50.229 207.171 50.1787 203.806C50.1812 203 50.0223 202.201 49.7113 201.457C49.4004 200.713 48.9438 200.039 48.3682 199.474C47.7926 198.909 47.1098 198.465 46.3598 198.167C45.6099 197.87 44.808 197.725 44.0013 197.742M44.0016 193.566C45.352 193.549 46.6924 193.8 47.9455 194.303C49.1985 194.806 50.3393 195.553 51.3022 196.499C52.265 197.445 53.0308 198.572 53.5552 199.816C54.0797 201.059 54.3525 202.394 54.3579 203.743C54.4422 209.389 49.8803 213.992 44.0789 214.114C44.0138 214.115 43.9495 214.116 43.8845 214.116C38.5144 214.116 33.8256 209.448 33.7685 203.991C33.7449 202.637 33.99 201.292 34.4898 200.034C34.9896 198.775 35.734 197.628 36.6801 196.659C37.6262 195.69 38.7552 194.917 40.0019 194.386C41.2485 193.856 42.5881 193.577 43.9433 193.566C43.963 193.566 43.9818 193.566 44.0016 193.566Z" fill="#006667"/>
<path d="M16.3915 170.068C14.7733 170.073 13.2216 170.712 12.0693 171.847C10.917 172.982 10.256 174.523 10.2282 176.139C10.2622 177.751 10.9128 179.289 12.0463 180.436C13.1798 181.584 14.7101 182.254 16.3228 182.309C17.9834 182.285 19.5674 181.607 20.7289 180.421C21.2886 179.88 21.735 179.233 22.0422 178.518C22.3495 177.803 22.5114 177.035 22.5186 176.257C22.5182 174.632 21.8789 173.073 20.7384 171.916C19.5979 170.758 18.0476 170.095 16.422 170.068L16.3915 170.068ZM16.3946 165.893L16.4399 165.893C19.1691 165.917 21.7784 167.017 23.6996 168.953C25.6209 170.89 26.6986 173.507 26.6981 176.234C26.7289 181.754 21.9393 186.485 16.3228 186.485H16.308C10.7494 186.476 5.97984 181.643 6.04895 176.087C6.08204 173.369 7.18708 170.774 9.12414 168.865C11.0612 166.956 13.6738 165.888 16.3946 165.893V165.893Z" fill="#006667"/>
<path d="M71.6522 59.3941C70.8707 59.3969 70.0976 59.5551 69.3778 59.8593C68.6581 60.1636 68.0061 60.6078 67.4598 61.1663C66.8827 61.7402 66.4256 62.4232 66.1152 63.1754C65.8048 63.9275 65.6473 64.7339 65.6519 65.5475C65.668 69.0513 68.3094 71.5944 71.9326 71.5944L72.0146 71.5939C73.578 71.545 75.059 70.8822 76.1363 69.7493C77.2309 68.664 77.8531 67.1913 77.8681 65.6507C77.8734 64.0074 77.2294 62.4284 76.0759 61.2569C74.9225 60.0854 73.3528 59.416 71.7081 59.3943L71.6529 59.3941H71.6522ZM71.6529 55.2183C71.6842 55.2183 71.7162 55.2184 71.7475 55.2187C74.486 55.2462 77.1032 56.3512 79.0314 58.2942C80.9596 60.2372 82.0433 62.8614 82.0473 65.5975C82.116 70.9875 77.4762 75.7124 72.0587 75.7695C72.0164 75.7699 71.9748 75.7701 71.9326 75.7701C66.0171 75.7701 61.4991 71.3752 61.4723 65.5667C61.4462 59.8923 66.0556 55.2179 71.6529 55.2183Z" fill="#006667"/>
<path d="M99.4724 87.0332H99.4725L99.4016 87.0337C98.6006 87.0368 97.8082 87.1992 97.0706 87.5113C96.3331 87.8235 95.6651 88.2792 95.1055 88.8519C94.5241 89.4602 94.0696 90.1781 93.7685 90.9636C93.4674 91.7492 93.3257 92.5867 93.3517 93.4275C93.3825 95.0026 94.0369 96.5013 95.1716 97.5952C96.3064 98.6891 97.8288 99.2891 99.4055 99.2636C99.4386 99.2636 99.4716 99.2633 99.5044 99.2628C101.158 99.2289 102.732 98.5412 103.879 97.3506C104.409 96.8164 104.827 96.1821 105.108 95.4848C105.39 94.7875 105.53 94.0411 105.519 93.2892C105.44 89.8397 102.728 87.0333 99.4724 87.0332ZM99.4725 82.8574C104.996 82.8575 109.566 87.4634 109.698 93.1935C109.824 98.6858 105.209 103.352 99.568 103.438C99.5137 103.439 99.4595 103.439 99.4055 103.439C96.7345 103.46 94.1629 102.428 92.2477 100.568C90.3325 98.7075 89.2278 96.1685 89.1727 93.5004C89.07 87.6215 93.5573 82.9293 99.3502 82.8582C99.3911 82.8577 99.4317 82.8574 99.4725 82.8574V82.8574Z" fill="#006667"/>
<path d="M99.4688 110.511V114.687L99.3954 114.687C97.7833 114.715 96.2469 115.376 95.1173 116.525C93.9877 117.675 93.3553 119.221 93.3564 120.832C93.3576 122.443 93.9922 123.989 95.1234 125.137C96.2547 126.285 97.792 126.943 99.4042 126.969L99.4267 126.969C102.676 126.969 105.529 124.2 105.532 121.044C105.536 120.193 105.371 119.349 105.046 118.561C104.722 117.774 104.244 117.059 103.641 116.458C103.097 115.902 102.449 115.459 101.733 115.155C101.017 114.851 100.248 114.691 99.4704 114.687L99.4688 110.511M99.4716 110.511C105.086 110.511 109.718 115.262 109.712 121.049C109.706 126.523 104.993 131.145 99.4267 131.145L99.3876 131.145C96.6883 131.125 94.1051 130.046 92.1952 128.14C90.2852 126.234 89.2015 123.655 89.1779 120.958C89.1573 115.187 93.6328 110.587 99.3403 110.512C99.3843 110.511 99.4278 110.511 99.4716 110.511H99.4716Z" fill="#006667"/>
<path d="M99.5048 142.368H99.5049L99.4628 142.368C98.6549 142.366 97.8548 142.525 97.1088 142.835C96.3628 143.145 95.6858 143.599 95.1173 144.173C94.5488 144.746 94.1 145.427 93.797 146.175C93.4941 146.923 93.343 147.724 93.3525 148.531C93.3592 151.829 96.096 154.632 99.3294 154.652L99.3648 154.652C102.621 154.652 105.506 151.893 105.538 148.747C105.55 147.896 105.393 147.051 105.074 146.261C104.755 145.472 104.281 144.754 103.681 144.15C103.138 143.59 102.49 143.144 101.773 142.838C101.056 142.532 100.285 142.372 99.5048 142.368ZM99.5049 138.192C105.151 138.192 109.777 142.985 109.717 148.79C109.661 154.224 104.906 158.828 99.3648 158.828C99.3444 158.828 99.3235 158.828 99.3031 158.828C93.7683 158.793 89.1843 154.138 89.1729 148.54C89.1593 147.185 89.4146 145.842 89.9241 144.587C90.4337 143.331 91.1873 142.19 92.1414 141.227C93.0955 140.265 94.2312 139.501 95.4827 138.98C96.7342 138.46 98.0766 138.192 99.4324 138.193C99.4566 138.192 99.4807 138.192 99.5049 138.192V138.192Z" fill="#006667"/>
<path d="M16.369 142.36C16.2934 142.36 16.2176 142.362 16.1417 142.365C14.5406 142.452 13.0342 143.151 11.9337 144.316C10.8333 145.481 10.2227 147.024 10.2282 148.626C10.2994 151.783 13.1768 154.659 16.2649 154.659C16.2963 154.659 16.3273 154.658 16.3587 154.658C17.202 154.629 18.0316 154.435 18.7998 154.087C19.568 153.738 20.2599 153.241 20.8359 152.625C21.9173 151.534 22.5212 150.059 22.5151 148.523C22.4113 145.183 19.597 142.36 16.3694 142.36H16.369ZM16.3699 138.185C21.8431 138.185 26.5176 142.761 26.6927 148.393C26.8629 153.864 22.0841 158.728 16.4362 158.833C16.3789 158.834 16.3222 158.834 16.2649 158.834C10.903 158.834 6.17268 154.173 6.04966 148.72C5.92513 143.199 10.4332 138.417 15.9727 138.193C16.1056 138.187 16.238 138.185 16.3699 138.185Z" fill="#006667"/>
<path d="M99.3013 170.071H99.3013L99.2642 170.071C95.9426 170.089 93.3464 172.766 93.3536 176.168C93.3607 179.467 96.0906 182.278 99.3158 182.306L99.3627 182.306C100.194 182.29 101.014 182.111 101.776 181.779C102.538 181.446 103.227 180.967 103.803 180.368C104.902 179.301 105.533 177.841 105.556 176.31C105.504 172.695 102.874 170.071 99.3013 170.071ZM99.3014 165.896C105.131 165.896 109.651 170.375 109.735 176.25C109.813 181.693 104.947 186.482 99.3627 186.482C99.335 186.482 99.3069 186.481 99.2791 186.481C93.7532 186.434 89.186 181.777 89.174 176.177C89.1559 174.84 89.4023 173.513 89.8991 172.272C90.396 171.031 91.1334 169.901 92.0691 168.945C93.0047 167.99 94.1201 167.228 95.3512 166.705C96.5823 166.182 97.9048 165.907 99.2426 165.896C99.2623 165.896 99.2817 165.896 99.3014 165.896Z" fill="#006667"/>
<path d="M16.4301 114.696H16.4302C16.3893 114.696 16.3486 114.696 16.3076 114.697C12.9491 114.77 10.1683 117.635 10.2353 120.954C10.3 124.159 13.1246 126.97 16.2799 126.97L16.3567 126.969C18.0526 126.927 19.6621 126.213 20.8313 124.985C21.3749 124.442 21.8045 123.795 22.095 123.084C22.3855 122.373 22.531 121.611 22.5231 120.843C22.4382 117.511 19.648 114.696 16.4301 114.696ZM16.4302 110.52C21.9207 110.52 26.5581 115.108 26.7013 120.737C26.8419 126.264 22.1017 131.062 16.4178 131.145C16.3717 131.145 16.3258 131.146 16.2799 131.146C10.8747 131.146 6.16697 126.508 6.05656 121.038C5.94299 115.413 10.5504 110.645 16.2173 110.522C16.2885 110.521 16.3593 110.52 16.4302 110.52Z" fill="#006667"/>
<path d="M16.3887 87.0415C15.5758 87.0435 14.7716 87.2085 14.0237 87.5267C13.2758 87.8449 12.5995 88.3099 12.0348 88.894C11.4508 89.4804 10.9907 90.1779 10.6816 90.9453C10.3724 91.7126 10.2206 92.5341 10.2351 93.3611C10.2922 96.5628 13.0969 99.2677 16.3598 99.2677L16.4235 99.2674C19.7549 99.2325 22.5481 96.4935 22.5231 93.2864C22.4966 89.9014 19.6879 87.0416 16.3898 87.0415H16.3887M16.3898 82.8657C22.006 82.8658 26.658 87.5514 26.7026 93.2537C26.7455 98.7496 22.0901 103.384 16.4673 103.443C16.4314 103.443 16.3956 103.444 16.3598 103.444C10.8074 103.444 6.15428 98.9361 6.0562 93.4355C6.03493 92.0624 6.2858 90.6986 6.79442 89.4228C7.30304 88.147 8.05937 86.9843 9.01974 86.0018C9.98011 85.0193 11.1256 84.2364 12.3902 83.6982C13.6547 83.1599 15.0134 82.877 16.3879 82.8657H16.3898Z" fill="#006667"/>
<path d="M71.8145 142.368L71.7975 142.368C70.9883 142.363 70.1862 142.519 69.4377 142.826C68.6891 143.133 68.0089 143.585 67.4365 144.156C66.864 144.728 66.4108 145.407 66.1029 146.155C65.795 146.902 65.6386 147.703 65.6428 148.512C65.6287 151.756 68.4191 154.624 71.615 154.648L71.6605 154.648C74.9623 154.648 77.8025 151.949 77.8624 148.753C77.8788 147.908 77.7251 147.069 77.4105 146.284C77.0959 145.5 76.6267 144.787 76.0309 144.187C75.4857 143.617 74.8316 143.163 74.1073 142.85C73.383 142.538 72.6033 142.374 71.8145 142.368ZM71.8146 138.192C77.4791 138.193 82.1497 143.047 82.0413 148.831C81.9389 154.291 77.22 158.824 71.6605 158.824C71.6346 158.824 71.6079 158.824 71.5819 158.824C66.0782 158.782 61.4392 154.046 61.4632 148.494C61.4614 147.14 61.7272 145.798 62.2454 144.547C62.7636 143.296 63.524 142.159 64.483 141.202C65.442 140.245 66.5807 139.486 67.8337 138.97C69.0868 138.453 70.4296 138.189 71.785 138.192L71.8146 138.192V138.192Z" fill="#006667"/>
<path d="M127.289 114.714C126.459 114.7 125.634 114.851 124.863 115.158C124.091 115.465 123.388 115.922 122.795 116.503C122.229 117.081 121.784 117.767 121.485 118.519C121.186 119.271 121.04 120.075 121.056 120.884C121.046 121.682 121.195 122.473 121.495 123.212C121.794 123.952 122.238 124.624 122.8 125.19C123.362 125.757 124.031 126.205 124.769 126.511C125.506 126.816 126.297 126.972 127.095 126.969L127.168 126.968C128.762 126.947 130.283 126.3 131.403 125.167C132.522 124.034 133.151 122.506 133.151 120.913C133.141 117.559 130.464 114.721 127.306 114.714L127.29 114.714H127.289ZM127.29 110.539L127.313 110.539C132.788 110.549 137.313 115.23 137.331 120.9C137.342 123.597 136.284 126.188 134.389 128.107C132.494 130.027 129.915 131.119 127.216 131.144C127.176 131.144 127.136 131.145 127.095 131.145C125.75 131.146 124.418 130.881 123.176 130.366C121.933 129.851 120.805 129.096 119.855 128.145C118.905 127.193 118.153 126.063 117.642 124.82C117.131 123.577 116.871 122.245 116.876 120.901C116.853 115.053 121.392 110.538 127.29 110.539Z" fill="#006667"/>
<path d="M43.9105 31.8389H43.9106L43.8956 31.8389C43.1106 31.8365 42.3332 31.9909 41.6088 32.293C40.8845 32.5952 40.228 33.039 39.6778 33.5984C39.1065 34.1825 38.6578 34.8748 38.3581 35.6347C38.0584 36.3945 37.9138 37.2066 37.9328 38.0231C37.9742 39.6047 38.6338 41.1072 39.7704 42.2087C40.907 43.3103 42.4302 43.9234 44.0138 43.9167L44.0668 43.9165C47.4897 43.8883 50.1813 41.2833 50.1944 37.9858C50.2062 37.1851 50.0586 36.39 49.76 35.6468C49.4614 34.9036 49.0179 34.2271 48.4553 33.6567C47.8561 33.068 47.1457 32.6042 46.3655 32.2921C45.5853 31.98 44.7508 31.826 43.9105 31.8389ZM43.9106 27.6631C49.8069 27.6632 54.3973 32.1966 54.3741 38.0025C54.3518 43.5647 49.7898 48.0453 44.1012 48.0921C44.0719 48.0924 44.043 48.0925 44.0138 48.0925C41.3294 48.1072 38.7473 47.0647 36.8268 45.1908C34.9064 43.3169 33.8023 40.7625 33.7536 38.081C33.7194 36.7282 33.956 35.3823 34.4494 34.1222C34.9429 32.862 35.6833 31.7131 36.6272 30.7427C37.5711 29.7723 38.6995 29 39.9461 28.4712C41.1928 27.9423 42.5326 27.6676 43.887 27.6631L43.9106 27.6631Z" fill="#006667"/>
<path d="M43.9726 165.896V170.071L43.9276 170.072C40.5683 170.097 37.9386 172.859 37.941 176.36C37.9431 179.502 40.8384 182.277 44.1357 182.3L44.1728 182.3C44.9599 182.282 45.7357 182.109 46.4555 181.79C47.1753 181.472 47.8248 181.014 48.3668 180.443C48.9358 179.88 49.3875 179.21 49.696 178.472C50.0046 177.733 50.1639 176.941 50.1646 176.141C50.1444 174.518 49.4822 172.968 48.3226 171.831C47.1629 170.694 45.6 170.061 43.9752 170.071L43.9726 165.896M43.9772 165.896C46.6968 165.884 49.3113 166.944 51.2523 168.847C53.1934 170.751 54.3043 173.342 54.3434 176.059C54.4523 181.61 49.6923 186.476 44.1728 186.476C44.1515 186.476 44.1294 186.476 44.1081 186.476C38.512 186.437 33.765 181.797 33.7614 176.363C33.7574 170.558 38.2306 165.938 43.8965 165.896C43.9237 165.896 43.9499 165.896 43.9772 165.896Z" fill="#006667"/>
<path d="M71.6987 170.071H71.6987L71.681 170.071C70.8894 170.075 70.1066 170.236 69.3782 170.546C68.6498 170.856 67.9903 171.307 67.4384 171.874C66.8635 172.449 66.4088 173.132 66.1011 173.884C65.7933 174.636 65.6386 175.442 65.6459 176.255C65.6878 177.853 66.3478 179.373 67.4873 180.495C68.6269 181.618 70.1575 182.256 71.7577 182.275C71.7923 182.275 71.827 182.275 71.8619 182.274C73.4521 182.219 74.9601 181.554 76.0734 180.419C77.1795 179.349 77.8199 177.888 77.8561 176.351C77.8532 172.771 75.2061 170.071 71.6987 170.071ZM71.6987 165.895C77.4926 165.895 82.0309 170.481 82.0357 176.348C82.04 181.699 77.384 186.355 71.9344 186.45C71.8754 186.451 71.8164 186.451 71.7577 186.451C69.054 186.436 66.4636 185.364 64.5404 183.465C62.6173 181.566 61.514 178.991 61.4665 176.29C61.4175 170.612 66.0327 165.91 71.6701 165.895L71.6987 165.895Z" fill="#006667"/>
<path d="M44.0272 59.3926H44.0275L43.9491 59.3931C42.3526 59.4189 40.8317 60.0772 39.7211 61.2233C38.5825 62.3642 37.9402 63.9077 37.9336 65.5188C37.9285 66.3149 38.0828 67.1039 38.3877 67.8395C38.6925 68.575 39.1416 69.2421 39.7085 69.8015C40.8868 70.9604 42.4773 71.6046 44.1307 71.5925C44.9317 71.5891 45.7242 71.4269 46.4621 71.1153C47.1999 70.8038 47.8686 70.349 48.4293 69.7773C48.9822 69.2388 49.4227 68.596 49.7252 67.8861C50.0278 67.1763 50.1863 66.4136 50.1917 65.6421C50.2003 63.9977 49.5564 62.4169 48.4011 61.2456C47.2458 60.0744 45.6731 59.4081 44.0272 59.3926ZM44.0275 55.2168C46.7798 55.2362 49.4125 56.3429 51.3507 58.2954C53.2888 60.2478 54.3747 62.8872 54.3713 65.637C54.3781 71.1496 49.7071 75.7683 44.1307 75.7683L44.1111 75.7682C42.7553 75.7797 41.4106 75.5228 40.1546 75.0124C38.8987 74.502 37.7563 73.7482 36.7934 72.7944C35.8305 71.8407 35.0662 70.7059 34.5445 69.4555C34.0229 68.2051 33.7542 66.8639 33.754 65.5092C33.7692 62.8118 34.8377 60.2267 36.732 58.3045C38.6263 56.3823 41.1967 55.2747 43.8961 55.2176C43.9403 55.2171 43.9835 55.2168 44.0275 55.2168V55.2168Z" fill="#006667"/>
<path d="M16.3271 31.8142H16.3273C16.2933 31.8142 16.2598 31.8145 16.226 31.815C14.6207 31.8362 13.089 32.4907 11.965 33.6359C10.841 34.7811 10.2158 36.324 10.2261 37.9279C10.2245 38.6982 10.3763 39.4612 10.6727 40.1724C10.9691 40.8835 11.4043 41.5286 11.9527 42.0701C12.5382 42.6587 13.2351 43.1251 14.0027 43.442C14.7704 43.7589 15.5935 43.92 16.4241 43.9158L16.4524 43.9158C17.2649 43.9105 18.0682 43.7439 18.8157 43.4257C19.5632 43.1076 20.2399 42.6442 20.8066 42.0624C21.351 41.5275 21.7836 40.8899 22.0794 40.1866C22.3752 39.4833 22.5281 38.7283 22.5295 37.9654C22.5309 37.1533 22.3712 36.3491 22.0594 35.5992C21.7477 34.8492 21.2901 34.1685 20.7132 33.5965C20.1364 33.0244 19.4518 32.5723 18.6989 32.2664C17.946 31.9605 17.1398 31.8068 16.3271 31.8142ZM16.3274 27.6384C17.6869 27.6292 19.0349 27.8886 20.2936 28.4018C21.5524 28.915 22.6972 29.6718 23.662 30.6288C24.6269 31.5857 25.3928 32.7238 25.9158 33.9776C26.4387 35.2314 26.7082 36.5762 26.709 37.9345C26.7497 43.4376 22.0827 48.0674 16.4703 48.0915L16.4241 48.0916C10.6926 48.0916 6.01834 43.5096 6.04653 37.9069C6.04366 35.2105 7.10355 32.6215 8.9969 30.7C10.8903 28.7784 13.4648 27.679 16.1634 27.6396C16.2185 27.6388 16.2725 27.6384 16.3274 27.6384Z" fill="#006667"/>
<path d="M44.0525 82.8579L44.0454 87.0337C43.2385 87.0381 42.4406 87.2044 41.6992 87.5228C40.9578 87.8412 40.2879 88.3051 39.7294 88.8871C39.1432 89.477 38.6815 90.1785 38.3719 90.9501C38.0623 91.7217 37.9109 92.5476 37.927 93.3787C37.9925 96.6262 40.7455 99.2683 44.0638 99.2683L44.1354 99.2679C47.4461 99.2301 50.2188 96.4803 50.1899 93.2633C50.1597 89.8866 47.349 87.0338 44.0523 87.0337L44.0525 82.8579ZM44.0525 82.8579C49.6625 82.8581 54.3184 87.5353 54.3694 93.2259C54.4188 98.7477 49.8015 103.379 44.1832 103.443C44.1434 103.444 44.1036 103.444 44.0638 103.444C38.4893 103.444 33.8594 98.9776 33.7482 93.4628C33.632 87.7004 38.3252 82.8647 44.0404 82.8579C44.0445 82.8579 44.0483 82.8579 44.0525 82.8579V82.8579Z" fill="#006667"/>
<path d="M99.4676 197.749C95.9606 197.749 93.3976 200.285 93.3734 203.779C93.3679 204.59 93.5241 205.394 93.833 206.144C94.1418 206.893 94.5971 207.574 95.1722 208.146C95.7205 208.708 96.3753 209.155 97.0985 209.461C97.8216 209.767 98.5987 209.927 99.3841 209.93L99.4089 209.93C102.61 209.916 105.545 207.057 105.568 203.931C105.576 203.121 105.424 202.317 105.12 201.567C104.815 200.816 104.364 200.133 103.794 199.557C103.235 198.988 102.569 198.534 101.834 198.224C101.099 197.914 100.31 197.752 99.5115 197.749L99.4677 197.749H99.4676ZM99.4677 193.573C99.4908 193.573 99.514 193.573 99.5371 193.573C100.89 193.585 102.228 193.863 103.474 194.391C104.72 194.92 105.849 195.688 106.797 196.653C107.745 197.618 108.494 198.76 109 200.014C109.506 201.268 109.76 202.609 109.747 203.961C109.708 209.398 104.943 214.082 99.4266 214.105L99.3841 214.105C93.7753 214.105 89.1547 209.415 89.1939 203.751C89.2339 197.971 93.6807 193.573 99.4677 193.573Z" fill="#006667"/>
<path d="M16.3978 5.95368e-05V4.17586C16.3615 4.17586 16.3255 4.17618 16.289 4.17679C15.4681 4.18475 14.6569 4.3557 13.9026 4.67971C13.1484 5.00372 12.4662 5.47432 11.8956 6.06413C11.3475 6.62956 10.9173 7.29825 10.6302 8.03129C10.343 8.76434 10.2046 9.54711 10.223 10.3341C10.2603 11.9351 10.9296 13.4564 12.0849 14.5666C13.2402 15.6767 14.7878 16.2856 16.3905 16.2605C16.4413 16.2605 16.4917 16.2599 16.5427 16.2588C19.9066 16.1835 22.5908 13.4662 22.5263 10.2015C22.5084 8.59235 21.8541 7.05557 20.7061 5.92665C19.5582 4.79773 18.0098 4.16835 16.3991 4.17587L16.3978 6.81433e-05M16.4 6.81433e-05C19.1055 -0.00977725 21.7057 1.04758 23.6353 2.94236C25.565 4.83714 26.6681 7.41621 26.7051 10.1191C26.8148 15.673 22.2912 20.3069 16.6364 20.4335C16.5539 20.4354 16.4725 20.4363 16.3905 20.4363C13.6929 20.4652 11.093 19.4293 9.15565 17.5537C7.21833 15.6781 6.10018 13.1143 6.04429 10.4197C6.02165 9.06656 6.26748 7.72238 6.76762 6.46472C7.26777 5.20706 8.01234 4.06083 8.95828 3.09222C9.90423 2.1236 11.0328 1.35179 12.2789 0.821325C13.5251 0.290862 14.864 0.012262 16.2185 0.00160871C16.2793 0.000582162 16.3394 6.53231e-05 16.4 6.81433e-05Z" fill="#006667"/>
<path d="M71.7245 197.784H71.7247L71.6844 197.784C68.1747 197.805 65.6363 200.391 65.6487 203.932C65.6597 207.08 68.4394 209.947 71.4805 209.947C71.5195 209.947 71.5582 209.946 71.5977 209.945C75.1376 209.857 77.8855 207.173 77.8536 203.834C77.852 203.034 77.6918 202.242 77.3823 201.504C77.0728 200.766 76.6201 200.096 76.0503 199.534C75.4805 198.971 74.8049 198.527 74.0625 198.227C73.32 197.927 72.5254 197.776 71.7245 197.784ZM71.7247 193.608C73.0719 193.598 74.4079 193.853 75.656 194.36C76.9042 194.867 78.0397 195.615 78.9976 196.561C79.9554 197.508 80.7167 198.634 81.2376 199.875C81.7585 201.117 82.0289 202.449 82.033 203.795C82.0867 209.405 77.5131 213.976 71.7016 214.12C71.6275 214.122 71.5544 214.123 71.4805 214.123C66.1775 214.123 61.4882 209.386 61.4691 203.947C61.4487 198.124 65.8652 193.643 71.6593 193.608C71.6814 193.608 71.7027 193.608 71.7247 193.608Z" fill="#006667"/>
<path d="M71.8012 31.8027H71.8015L71.765 31.8029C68.2646 31.8229 65.6368 34.4444 65.6527 37.9007C65.6684 41.3304 68.2923 43.9168 71.756 43.9168L71.8105 43.9166C73.4638 43.8929 75.0407 43.217 76.1972 42.0364C76.7337 41.5062 77.1594 40.8748 77.4495 40.1788C77.7396 39.4828 77.8884 38.7362 77.8871 37.9822C77.8462 34.5174 75.1729 31.803 71.8012 31.8027ZM71.8015 27.627C77.4581 27.6274 81.9984 32.1787 82.0665 37.9329C82.1314 43.4171 77.4701 48.0489 71.8427 48.0922C71.8137 48.0925 71.785 48.0926 71.756 48.0926C65.9911 48.0926 61.4994 43.6579 61.4731 37.9198C61.4468 32.1727 65.9482 27.6604 71.741 27.6271C71.7615 27.627 71.7811 27.627 71.8015 27.627Z" fill="#006667"/>
<path d="M127.083 170.069C123.65 170.069 121.056 172.686 121.049 176.155C121.043 179.501 123.704 182.259 126.982 182.303L127.063 182.303C127.867 182.302 128.663 182.141 129.405 181.83C130.146 181.519 130.818 181.064 131.382 180.491C131.942 179.941 132.386 179.286 132.69 178.563C132.994 177.84 133.152 177.063 133.153 176.279C133.145 172.76 130.555 170.091 127.127 170.069L127.084 170.069H127.083ZM127.084 165.893C127.107 165.893 127.13 165.893 127.153 165.893C132.894 165.93 137.32 170.441 137.333 176.27C137.345 181.862 132.684 186.479 127.063 186.479C127.018 186.479 126.972 186.479 126.927 186.478C121.375 186.404 116.859 181.765 116.87 176.147C116.881 170.386 121.363 165.893 127.084 165.893V165.893Z" fill="#006667"/>
<path d="M154.787 165.896V170.072H154.784C153.988 170.06 153.198 170.206 152.459 170.502C151.72 170.797 151.047 171.236 150.479 171.793C149.913 172.376 149.469 173.065 149.171 173.82C148.874 174.576 148.729 175.383 148.746 176.195C148.754 179.541 151.425 182.283 154.7 182.306L154.746 182.307C155.953 182.284 157.127 181.909 158.124 181.228C159.121 180.547 159.896 179.59 160.356 178.474C160.815 177.359 160.937 176.133 160.708 174.949C160.479 173.764 159.909 172.672 159.067 171.808C158.504 171.25 157.836 170.809 157.101 170.511C156.366 170.213 155.58 170.064 154.787 170.072V165.896ZM154.791 165.896C160.529 165.897 165.02 170.434 165 176.214C165.001 178.933 163.921 181.542 161.999 183.467C160.076 185.392 157.468 186.477 154.746 186.482C154.721 186.482 154.695 186.482 154.67 186.482C149.109 186.442 144.581 181.836 144.566 176.205C144.552 170.38 148.987 165.903 154.779 165.896H154.791V165.896Z" fill="#006667"/>
<path d="M44.0216 142.361C40.7499 142.361 37.9622 145.17 37.9342 148.494C37.9792 150.103 38.6349 151.635 39.7682 152.778C40.9015 153.922 42.4278 154.593 44.0376 154.654L44.0673 154.654C47.2788 154.636 50.1986 151.77 50.1931 148.641C50.1996 147.005 49.565 145.433 48.4251 144.259C47.2853 143.085 45.7308 142.404 44.0946 142.362L44.022 142.361H44.0216ZM44.0224 138.186C44.0632 138.186 44.1048 138.186 44.1457 138.186C46.8815 138.239 49.4871 139.363 51.4004 141.318C53.3137 143.272 54.3812 145.9 54.3728 148.633C54.3822 154.066 49.6096 158.799 44.0906 158.83C44.0726 158.83 44.0556 158.83 44.0376 158.83C38.5045 158.83 33.708 154 33.7548 148.459C33.8023 142.815 38.4436 138.185 44.0224 138.186Z" fill="#006667"/>
<path d="M44.1139 110.511V114.687C44.043 114.687 43.9724 114.688 43.9012 114.691C42.2658 114.762 40.7238 115.472 39.6074 116.668C38.4909 117.864 37.8893 119.451 37.9322 121.086C38.0182 124.219 40.8424 126.968 43.9761 126.968C44.0293 126.968 44.0825 126.967 44.1362 126.966C47.4808 126.867 50.2503 124.086 50.1837 120.893C50.1136 117.529 47.3343 114.687 44.1145 114.687L44.1139 110.511ZM44.1149 110.511C49.6001 110.511 54.2442 115.132 54.3624 120.806C54.4765 126.278 49.8852 130.974 44.2594 131.14C44.1646 131.142 44.0704 131.144 43.9761 131.144C38.5898 131.144 33.9028 126.619 33.7541 121.2C33.6796 118.465 34.6858 115.811 36.5549 113.812C38.4241 111.813 41.0059 110.63 43.7418 110.518C43.8668 110.513 43.9906 110.511 44.1149 110.511V110.511Z" fill="#006667"/>
<path d="M71.7597 114.687H71.76L71.6818 114.687C70.885 114.695 70.0978 114.861 69.3661 115.177C68.6344 115.492 67.9729 115.949 67.4202 116.523C66.8334 117.134 66.3743 117.857 66.0698 118.647C65.7653 119.438 65.6214 120.281 65.6467 121.128C65.7094 124.288 68.5182 126.958 71.7801 126.958C71.8166 126.958 71.8532 126.958 71.8894 126.957C75.0414 126.901 77.8924 124.082 77.8709 121.043C77.8461 117.538 75.1047 114.687 71.7597 114.687ZM71.76 110.511C77.3728 110.511 82.0094 115.227 82.0504 121.013C82.0882 126.363 77.4325 131.034 71.9646 131.133C71.903 131.134 71.8415 131.134 71.7801 131.134C66.2483 131.134 61.5761 126.659 61.4679 121.211C61.3516 115.351 65.8734 110.589 71.6258 110.512C71.6708 110.511 71.7151 110.511 71.76 110.511V110.511Z" fill="#006667"/>
<path d="M127.219 142.368L127.16 142.368C123.659 142.404 121.035 145.047 121.055 148.517C121.075 151.878 123.745 154.629 127.008 154.649L127.046 154.649C127.853 154.651 128.652 154.493 129.396 154.184C130.141 153.875 130.817 153.422 131.385 152.85C131.948 152.292 132.395 151.627 132.699 150.895C133.003 150.163 133.158 149.378 133.156 148.585C133.149 145.157 130.486 142.368 127.219 142.368ZM127.219 138.192C132.783 138.192 137.325 142.843 137.335 148.578C137.33 151.299 136.243 153.908 134.314 155.829C132.385 157.751 129.771 158.828 127.046 158.825C127.025 158.825 127.002 158.825 126.981 158.825C121.44 158.79 116.909 154.179 116.876 148.542C116.857 147.187 117.108 145.842 117.614 144.586C118.121 143.329 118.872 142.186 119.826 141.223C120.779 140.259 121.915 139.495 123.167 138.975C124.419 138.455 125.762 138.189 127.118 138.193C127.152 138.193 127.185 138.192 127.219 138.192Z" fill="#006667"/>
<path d="M71.7469 82.857V87.0327H71.7465C70.1185 87.0509 68.5637 87.7111 67.4209 88.8697C66.278 90.0282 65.6398 91.5911 65.6454 93.2177C65.6565 94.8064 66.2878 96.3281 67.4051 97.4586C68.5224 98.5891 70.0373 99.2392 71.6271 99.2704L71.6531 99.2705C75.023 99.2705 77.8128 96.6393 77.8721 93.4052C77.8859 92.5681 77.7315 91.7367 77.4179 90.9604C77.1044 90.184 76.6381 89.4784 76.0467 88.8853C75.4913 88.3052 74.8251 87.8423 74.0874 87.5241C73.3497 87.2059 72.5557 87.0388 71.7522 87.0328L71.7469 82.8569M71.7469 82.8569H71.7619C77.4535 82.8652 82.1567 87.7216 82.0511 93.4816C81.9502 98.9841 77.2892 103.446 71.6531 103.446L71.6116 103.446C68.8948 103.404 66.3044 102.292 64.4043 100.352C62.5042 98.411 61.4481 95.7992 61.466 93.0845C61.4838 90.3699 62.5741 87.7722 64.4996 85.8567C66.425 83.9413 69.0298 82.8631 71.7469 82.8569V82.8569Z" fill="#006667"/>
<path d="M71.5938 4.19932C70.8102 4.19422 70.0334 4.34478 69.3086 4.64223C68.5838 4.93969 67.9254 5.37813 67.3717 5.93204C66.8179 6.49052 66.3808 7.15339 66.0858 7.88213C65.7907 8.61087 65.6435 9.39094 65.6528 10.177C65.6374 10.9808 65.7846 11.7795 66.0857 12.5251C66.3867 13.2708 66.8353 13.948 67.4047 14.5161C67.9741 15.0843 68.6525 15.5317 69.3991 15.8316C70.1458 16.1315 70.9453 16.2776 71.7499 16.2613L71.7685 16.2612C75.133 16.2524 77.8779 13.5922 77.8875 10.3313C77.9 9.53211 77.7535 8.73846 77.4564 7.99636C77.1594 7.25426 76.7178 6.57849 76.1572 6.0083C75.5552 5.4205 74.8424 4.95793 74.0602 4.64741C73.2779 4.33688 72.4418 4.18457 71.6001 4.19932H71.5938ZM71.6001 0.0235167C77.5167 0.0240074 82.0842 4.52573 82.0671 10.3435C82.0508 15.8869 77.4284 20.4221 71.7796 20.437L71.7499 20.437C65.9703 20.437 61.4967 15.9812 61.4732 10.1939C61.4594 8.85973 61.7112 7.53614 62.214 6.30008C62.7167 5.06401 63.4604 3.94013 64.4018 2.99378C65.3432 2.04743 66.4635 1.29751 67.6975 0.787592C68.9316 0.277678 70.2548 0.0179541 71.5903 0.0235253H71.6001V0.0235167Z" fill="#006667"/>
<path d="M44.1592 0.0385743V4.21438H44.159C44.1021 4.21438 44.0456 4.21514 43.9882 4.21666C43.1522 4.2219 42.3256 4.39363 41.5568 4.72181C40.788 5.04998 40.0925 5.52801 39.5108 6.12793C38.97 6.71548 38.5521 7.40492 38.2814 8.15588C38.0106 8.90684 37.8926 9.70421 37.9342 10.5013C38.0535 13.779 40.7403 16.2508 44.1839 16.2508C44.2616 16.2508 44.3393 16.2495 44.4177 16.247C47.6291 16.1432 50.2742 13.3776 50.1938 10.2078C50.1072 6.79126 47.5132 4.21464 44.1598 4.21438L44.1592 0.0385743ZM44.1604 0.0385743C49.7441 0.0390311 54.2282 4.42846 54.3721 10.102C54.5103 15.5493 50.0435 20.2431 44.5529 20.4206C44.4292 20.4246 44.3065 20.4266 44.1839 20.4266C38.5179 20.4266 33.9588 16.1884 33.7574 10.653C33.545 4.81408 37.9465 0.199196 43.8776 0.0423181C43.9725 0.0398109 44.0661 0.0385658 44.1604 0.0385743Z" fill="#006667"/>
<path d="M99.685 59.4024C96.0311 59.4047 93.3656 61.9905 93.3469 65.5509C93.3345 66.3388 93.4793 67.1213 93.7726 67.8528C94.066 68.5842 94.5022 69.2501 95.0558 69.8114C95.6093 70.3727 96.2691 70.8184 96.9968 71.1223C97.7245 71.4263 98.5055 71.5825 99.2943 71.5818L99.352 71.5821C102.709 71.5821 105.483 68.979 105.537 65.7793C105.543 64.9246 105.38 64.0772 105.057 63.2857C104.734 62.4942 104.258 61.7743 103.655 61.1675C103.145 60.6237 102.532 60.1874 101.85 59.8842C101.169 59.5811 100.434 59.4172 99.6882 59.4024H99.685ZM99.6882 55.2266C105.162 55.2267 109.812 60.1508 109.716 65.8493C109.624 71.341 104.993 75.7579 99.352 75.7579C99.3204 75.7579 99.2885 75.7578 99.2569 75.7575C97.9211 75.7514 96.5997 75.4816 95.3687 74.9637C94.1376 74.4457 93.0212 73.6897 92.0836 72.7391C91.1459 71.7886 90.4056 70.6623 89.9052 69.4249C89.4047 68.1876 89.154 66.8636 89.1674 65.5291C89.1979 59.6884 93.7479 55.2304 99.6823 55.2266H99.6882V55.2266Z" fill="#006667"/>
<path d="M99.465 31.8145H99.4652L99.4166 31.8146C95.8929 31.8401 93.34 34.421 93.3463 37.9512C93.3385 38.7361 93.4874 39.5146 93.7843 40.2413C94.0812 40.968 94.5201 41.6282 95.0753 42.1834C95.6306 42.7386 96.2912 43.1777 97.0183 43.4749C97.7454 43.772 98.5245 43.9214 99.3101 43.9142L99.3282 43.9142C100.18 43.9128 101.022 43.7433 101.808 43.4152C102.593 43.0872 103.306 42.6072 103.905 42.0029C104.434 41.4773 104.851 40.8511 105.133 40.1615C105.415 39.4718 105.556 38.7327 105.547 37.9877C105.479 34.4686 102.864 31.8147 99.465 31.8145ZM99.4653 27.6387C105.154 27.639 109.613 32.0927 109.726 37.9064C109.834 43.4559 105.125 48.0735 99.3402 48.09L99.3101 48.09C97.9769 48.0947 96.6561 47.8358 95.4235 47.3284C94.1909 46.8209 93.071 46.0749 92.1282 45.1332C91.1854 44.1915 90.4384 43.0728 89.9301 41.8415C89.4218 40.6102 89.1624 39.2906 89.1667 37.9587C89.1564 32.1578 93.5898 27.6809 99.3863 27.639C99.4129 27.6388 99.4388 27.6387 99.4653 27.6387Z" fill="#006667"/>
</g>
</svg>
