<svg width="130" height="50" viewBox="0 0 130 50" fill="none" xmlns="http://www.w3.org/2000/svg">
<path d="M124.756 36.7234H124.75C124.148 36.7358 123.55 36.6278 122.991 36.4057C122.431 36.1836 121.922 35.8519 121.492 35.4301C121.063 35.0083 120.722 34.505 120.49 33.9496C120.258 33.3942 120.139 32.798 120.141 32.1961C120.116 31.5761 120.218 30.9575 120.442 30.3785C120.665 29.7996 121.005 29.2725 121.439 28.8298C121.874 28.3871 122.395 28.0381 122.97 27.8044C123.545 27.5706 124.161 27.4571 124.782 27.4708H124.808C126.035 27.4797 127.209 27.969 128.08 28.834C128.95 29.699 129.447 30.8706 129.463 32.0976C129.475 32.6826 129.367 33.2638 129.148 33.8064C128.929 34.3489 128.603 34.8415 128.188 35.2546C127.743 35.7154 127.209 36.0826 126.62 36.3348C126.031 36.587 125.397 36.7191 124.756 36.7234M124.789 28.8738C124.354 28.8592 123.921 28.935 123.517 29.0965C123.113 29.2581 122.746 29.5018 122.441 29.8122C122.136 30.1226 121.899 30.493 121.744 30.8999C121.59 31.3068 121.522 31.7414 121.544 32.1761C121.543 32.5946 121.626 33.009 121.788 33.395C121.95 33.7809 122.187 34.1307 122.486 34.4236C122.785 34.7166 123.139 34.9468 123.528 35.1008C123.917 35.2549 124.333 35.3295 124.752 35.3204H124.756C125.209 35.3166 125.657 35.2223 126.074 35.0432C126.49 34.8641 126.867 34.6037 127.181 34.2773C127.464 33.9989 127.688 33.6661 127.839 33.2989C127.99 32.9317 128.065 32.5377 128.06 32.1407C128.053 31.2789 127.709 30.4541 127.1 29.8433C126.492 29.2326 125.669 28.8845 124.807 28.8738H124.789Z" fill="#106666"/>
<path d="M90.3441 48.0888L85.7976 48.0792L84.8783 49.9537L84.6227 49.876L88.0759 42.9614L91.4941 49.876L91.2551 49.9432L90.3441 48.0888ZM85.9189 47.8533L90.2228 47.8629L88.078 43.4708L85.9189 47.8533Z" fill="#010101"/>
<path d="M94.7818 49.9208H94.5321V43.1875H97.9459V43.4249H94.7818V46.3729H97.8409V46.6021H94.7818V49.9208Z" fill="#010101"/>
<path d="M105.992 49.9695L103.415 46.73C103.388 46.73 103.362 46.7309 103.335 46.7309H101.801V49.9211H101.55V43.1875H103.328C104.541 43.1875 105.414 43.7955 105.414 44.9703C105.414 46.0506 104.719 46.6088 103.7 46.713L106.21 49.8526L105.992 49.9695ZM103.339 46.4993C104.412 46.4993 105.155 46.0153 105.155 44.9703C105.155 43.9463 104.412 43.433 103.339 43.433H101.801V46.4993H103.339Z" fill="#010101"/>
<path d="M109.587 43.1875H109.337V49.9211H109.587V43.1875Z" fill="#010101"/>
<path d="M116.69 49.9969C116.226 50.0168 115.762 49.9425 115.327 49.7784C114.892 49.6144 114.495 49.364 114.159 49.0423C113.823 48.7207 113.556 48.3344 113.373 47.9067C113.191 47.4791 113.097 47.0189 113.097 46.554C113.097 46.089 113.191 45.6288 113.373 45.2012C113.556 44.7736 113.823 44.3873 114.159 44.0656C114.495 43.744 114.892 43.4936 115.327 43.3295C115.762 43.1655 116.226 43.0912 116.69 43.1111C117.243 43.1178 117.789 43.2408 118.291 43.4719C118.794 43.7031 119.242 44.0374 119.607 44.453L119.419 44.6039C119.079 44.2144 118.66 43.9011 118.191 43.6846C117.721 43.4681 117.211 43.3532 116.694 43.3474C116.261 43.3295 115.83 43.3992 115.425 43.5522C115.02 43.7053 114.651 43.9386 114.339 44.2382C114.026 44.5378 113.778 44.8974 113.608 45.2954C113.438 45.6934 113.351 46.1217 113.351 46.5544C113.351 46.9871 113.438 47.4154 113.608 47.8134C113.778 48.2114 114.026 48.571 114.339 48.8706C114.651 49.1701 115.02 49.4035 115.425 49.5566C115.83 49.7096 116.261 49.7793 116.694 49.7614C117.22 49.7649 117.741 49.6541 118.22 49.4366C118.699 49.219 119.125 48.8999 119.469 48.5014L119.645 48.6541C119.278 49.0767 118.824 49.4154 118.314 49.647C117.804 49.8787 117.25 49.998 116.69 49.9968" fill="#010101"/>
<path d="M127.791 48.0888L123.245 48.0792L122.325 49.9537L122.07 49.876L125.523 42.9614L128.941 49.876L128.702 49.9432L127.791 48.0888ZM123.366 47.8533L127.67 47.8629L125.525 43.4708L123.366 47.8533Z" fill="#010101"/>
<path d="M3.9115 34.8065H20.325V37.1062H1.44202V1.19092H20.3131V3.4455H3.9115V17.7523H19.7693V19.9163H3.9115V34.8065Z" fill="#010101"/>
<path d="M65.355 8.14878C65.355 7.53081 65.3777 6.9246 65.3886 6.43092L50.3449 23.93L35.3016 6.40737C35.3125 6.89102 35.3356 7.5308 35.3356 8.10473V37.1062H32.8663V0L48.9501 18.9142C49.3819 19.37 49.9401 20.0276 50.3226 20.4432C50.7164 20.0158 51.2847 19.3582 51.6946 18.9142L67.8238 0V37.1062H65.355V8.14878Z" fill="#010101"/>
<path d="M98.8719 37.5329C87.8827 37.5329 79.5547 29.5642 79.5547 19.0923C79.5547 8.72104 87.939 0.76416 98.8719 0.76416C104.81 0.76416 110.368 3.33548 114.835 8.16282L112.987 9.585C108.905 5.23652 104.185 3.03546 98.9186 3.03546C89.42 3.03546 82.092 10.0325 82.092 19.0918C82.092 28.2646 89.4091 35.2611 98.9186 35.2611C104.455 35.2611 108.77 33.2603 113.211 28.6654L115.015 30.1115C110.054 35.2197 105.035 37.5329 98.8719 37.5329Z" fill="#010101"/>
<path d="M1.00117 46.294L1 46.6211L80.2679 46.905L80.2691 46.5779L1.00117 46.294Z" fill="#106666" stroke="#106666" stroke-width="0.688738" stroke-miterlimit="10"/>
</svg>
